<svg viewBox="-3 0 511 511.99996" xmlns="http://www.w3.org/2000/svg"><path d="m276.542969 180.140625c-46.164063 0-83.726563-37.5625-83.726563-83.726563 0-4.207031-3.40625-7.613281-7.609375-7.613281-4.207031 0-7.613281 3.40625-7.613281 7.613281 0 54.558594 44.386719 98.949219 98.949219 98.949219h45.667969v-15.222656zm0 0" fill="#ffcb63"/><path d="m.5 365.039062c0 4.203126 3.40625 7.609376 7.613281 7.609376 4.203125 0 7.609375-3.40625 7.609375-7.609376v-65.652343h-15.222656zm0 0" fill="#1990c2"/><path d="m30.945312 299.386719v65.652343c0 4.203126 3.40625 7.609376 7.613282 7.609376 4.203125 0 7.609375-3.40625 7.609375-7.609376v-65.652343zm0 0" fill="#1990c2"/><path d="m236.457031 258.789062h-15.222656c0-4.195312-3.414063-7.609374-7.613281-7.609374h-106.558594v-15.222657h106.558594c12.589844 0 22.835937 10.242188 22.835937 22.832031zm0 0" fill="#9db55f"/><path d="m284.15625 289.238281v199.511719l-25.242188 8.414062c-3.988281 1.332032-6.140624 5.640626-4.8125 9.628907 1.328126 3.988281 5.640626 6.144531 9.628907 4.8125l30.441406-10.148438c3.109375-1.035156 5.207031-3.941406 5.207031-7.21875v-205zm0 0" fill="#2dade3"/><path d="m345.046875 289.238281v199.511719l-25.238281 8.414062c-3.988282 1.332032-6.144532 5.640626-4.816406 9.628907 1.332031 3.988281 5.640624 6.144531 9.628906 4.8125l30.445312-10.148438c3.105469-1.035156 5.203125-3.941406 5.203125-7.21875v-205zm0 0" fill="#1990c2"/><path d="m405.9375 289.238281v199.511719l-25.238281 8.414062c-3.988281 1.332032-6.144531 5.640626-4.8125 9.628907 1.328125 3.988281 5.640625 6.144531 9.625 4.8125l30.445312-10.148438c3.109375-1.035156 5.203125-3.941406 5.203125-7.21875v-205zm0 0" fill="#c27749"/><path d="m466.832031 289.238281v199.511719l-25.242187 8.414062c-3.988282 1.332032-6.140625 5.640626-4.8125 9.628907s5.640625 6.144531 9.628906 4.8125l30.441406-10.148438c3.109375-1.035156 5.207032-3.941406 5.207032-7.21875v-205zm0 0" fill="#a45e43"/><path d="m84.226562 289.238281v199.511719l25.238282 8.414062c3.988281 1.332032 6.144531 5.640626 4.816406 9.628907s-5.640625 6.144531-9.628906 4.8125l-30.445313-10.148438c-3.105469-1.035156-5.203125-3.941406-5.203125-7.21875v-205zm0 0" fill="#116f97"/><path d="m145.117188 289.238281v199.511719l25.242187 8.414062c3.988281 1.332032 6.140625 5.640626 4.8125 9.628907s-5.640625 6.144531-9.628906 4.8125l-30.441407-10.148438c-3.109374-1.035156-5.207031-3.941406-5.207031-7.21875v-205zm0 0" fill="#084f6d"/><path d="m198.398438 190.289062c-4.203126 0-7.609376 3.40625-7.609376 7.609376v76.117187h15.222657v-76.117187c0-4.203126-3.410157-7.609376-7.613281-7.609376zm0 0" fill="#084f6d"/><path d="m213.621094 281.625h-15.222656c-4.203126 0-7.609376-3.40625-7.609376-7.609375 0-4.207031 3.40625-7.613281 7.609376-7.613281h15.222656c4.199218 0 7.613281-3.414063 7.613281-7.613282 0-4.203124 3.40625-7.609374 7.609375-7.609374 4.207031 0 7.613281 3.40625 7.613281 7.609374 0 12.59375-10.246093 22.835938-22.835937 22.835938zm0 0" fill="#9db55f"/><path d="m428.773438 189.984375v99.253906h60.890624v-68.808593zm0 0" fill="#a45e43"/><path d="m398.328125 220.429688v38.359374l60.890625 30.449219v-99.253906zm0 0" fill="#c27749"/><path d="m469.367188 167.453125h-30.445313l20.296875 52.976563c3.371094 4.789062 8.929688 7.914062 15.222656 7.914062 6.292969 0 11.855469-3.125 15.222656-7.914062v-32.679688c0-11.214844-9.082031-20.296875-20.296874-20.296875zm0 0" fill="#ffd9d4"/><path d="m459.21875 187.75v32.679688c-3.367188 4.789062-8.929688 7.914062-15.222656 7.914062-6.292969 0-11.851563-3.125-15.222656-7.914062-3.371094 4.789062-8.929688 7.914062-15.222657 7.914062s-11.855469-3.125-15.222656-7.914062v-32.679688c0-11.214844 9.082031-20.296875 20.296875-20.296875h20.296875c11.214844 0 20.296875 9.082031 20.296875 20.296875zm0 0" fill="#fff0d3"/><path d="m489.664062 258.789062h-30.445312l15.222656 91.339844h30.445313v-51.082031c0-15.4375-5.753907-29.523437-15.222657-40.257813zm0 0" fill="#999"/><path d="m459.21875 258.789062h-60.890625v91.339844h76.113281v-51.082031c0-15.4375-5.753906-29.523437-15.222656-40.257813zm0 0" fill="#b3b3b3"/><path d="m478.761719 61.738281c.007812-.007812-34.765625-.003906-34.765625-.003906v75.273437c25.21875 0 45.667968-20.449218 45.667968-45.667968 0-11.289063-4.105468-21.632813-10.902343-29.601563zm0 0" fill="#a45e43"/><path d="m458.09375 74.09375-48.863281-12.355469c-6.796875 7.96875-10.902344 18.3125-10.902344 29.601563 0 25.21875 20.449219 45.667968 45.667969 45.667968 8.402344 0 15.222656-20.449218 15.222656-45.667968 0-6.101563-.394531-11.925782-1.125-17.246094zm0 0" fill="#c27749"/><path d="m443.996094 45.667969 14.097656 28.425781c7.558594-2.261719 14.6875-6.386719 20.667969-12.355469-8.375-9.832031-20.839844-16.070312-34.765625-16.070312zm0 0" fill="#60312c"/><path d="m443.996094 45.667969c-13.921875 0-26.390625 6.238281-34.765625 16.070312 13.234375 13.234375 32.117187 17.359375 48.863281 12.355469-2.265625-16.671875-7.722656-28.425781-14.097656-28.425781zm0 0" fill="#85453d"/><path d="m322.210938 258.789062v76.117188c25.222656 0 45.671874-20.445312 45.671874-45.667969zm0 0" fill="#1990c2"/><path d="m337.4375 289.238281-15.226562-30.449219-45.667969 30.449219c0 25.222657 20.445312 45.667969 45.667969 45.667969 8.410156 0 15.226562-20.445312 15.226562-45.667969zm0 0" fill="#2dade3"/><path d="m347.585938 167.453125h-30.449219l20.300781 121.785156h30.445312v-101.488281c0-11.210938-9.089843-20.296875-20.296874-20.296875zm0 0" fill="#ffa754"/><path d="m317.136719 167.453125h-20.296875c-11.210938 0-20.296875 9.085937-20.296875 20.296875v101.488281h60.894531v-101.488281c0-11.210938-9.089844-20.296875-20.300781-20.296875zm0 0" fill="#ffcb63"/><path d="m322.210938 45.667969v102.503906l45.671874-46.683594v-10.148437c0-25.222656-20.449218-45.671875-45.671874-45.671875zm0 0" fill="#ffb4a9"/><path d="m322.210938 45.667969c-25.222657 0-45.667969 20.449219-45.667969 45.671875v10.148437l60.894531 46.683594v-56.832031c0-25.222656-6.816406-45.671875-15.226562-45.671875zm0 0" fill="#ffd9d4"/><path d="m341.199219 101.488281c-1.066407-1.597656-2.335938-3.046875-3.761719-4.324219l-15.226562 70.289063c25.222656 0 45.671874-20.445313 45.671874-45.667969v-20.296875zm0 0" fill="#85453d"/><path d="m337.4375 121.785156v-24.621094c-4.042969-3.621093-9.375-5.824218-15.226562-5.824218-7.914063 0-14.886719 4.027344-18.984376 10.148437h-26.683593v20.296875c0 25.222656 20.445312 45.667969 45.667969 45.667969 8.410156 0 15.226562-20.445313 15.226562-45.667969zm0 0" fill="#a45e43"/><path d="m454.144531 0c-3.777343 0-7.269531 1.1875-10.148437 3.195312-2.878906-2.007812-6.371094-3.195312-10.148438-3.195312-9.808594 0-17.761718 7.953125-17.761718 17.761719 0 15.414062 12.496093 27.90625 27.910156 27.90625 15.414062 0 27.910156-12.492188 27.910156-27.90625 0-9.808594-7.953125-17.761719-17.761719-17.761719zm0 0" fill="#85453d"/><path d="m61.390625 228.34375v15.222656l30.449219 30.449219h-76.117188l15.222656-76.117187c16.816407 0 30.445313 13.628906 30.445313 30.445312zm0 0" fill="#1990c2"/><path d="m30.945312 197.898438v76.117187l-30.445312-30.449219v-15.222656c0-16.816406 13.628906-30.445312 30.445312-30.445312zm0 0" fill="#2dade3"/><path d="m30.945312 243.566406-15.222656 32.671875 15.222656 43.445313h60.894532v-76.117188zm0 0" fill="#353535"/><path d="m.5 243.566406v55.820313c0 11.164062 9.132812 20.296875 20.296875 20.296875h10.148437v-76.117188zm0 0" fill="#4f4f4f"/><path d="m141.824219 117.558594c.011719-.011719-34.761719-.007813-34.761719-.007813v75.273438c25.21875 0 45.667969-20.449219 45.667969-45.667969 0-11.285156-4.105469-21.632812-10.90625-29.597656zm0 0" fill="#c27749"/><path d="m121.15625 129.914062-48.859375-12.355468c-6.800781 7.964844-10.90625 18.3125-10.90625 29.597656 0 25.21875 20.449219 45.667969 45.671875 45.667969 8.402344 0 15.222656-20.449219 15.222656-45.667969 0-6.101562-.398437-11.925781-1.128906-17.242188zm0 0" fill="#e18f4e"/><path d="m107.0625 101.488281 14.09375 28.425781c7.5625-2.265624 14.691406-6.390624 20.667969-12.355468-8.371094-9.835938-20.839844-16.070313-34.761719-16.070313zm0 0" fill="#60312c"/><path d="m107.0625 101.488281c-13.925781 0-26.394531 6.234375-34.765625 16.070313 13.234375 13.230468 32.117187 17.359375 48.859375 12.355468-2.261719-16.675781-7.722656-28.425781-14.09375-28.425781zm0 0" fill="#85453d"/><path d="m107.0625 274.015625v91.335937c25.222656 0 45.667969-20.445312 45.667969-45.667968zm0 0" fill="#084f6d"/><path d="m122.285156 319.683594-15.222656-45.667969-45.671875 45.667969c0 25.222656 20.449219 45.667968 45.671875 45.667968 8.40625 0 15.222656-20.445312 15.222656-45.667968zm0 0" fill="#116f97"/><path d="m132.433594 223.269531h-30.445313l20.296875 96.414063h30.445313v-76.117188c0-11.207031-9.085938-20.296875-20.296875-20.296875zm0 0" fill="#9db55f"/><path d="m101.988281 223.269531h-20.300781c-11.207031 0-20.296875 9.089844-20.296875 20.296875v76.117188h60.894531v-76.117188c0-11.207031-9.089844-20.296875-20.296875-20.296875zm0 0" fill="#b9d171"/></svg>